<mxfile host="app.diagrams.net" agent="Mozilla/5.0 (Macintosh; Intel Mac OS X 10_15_7) AppleWebKit/537.36 (KHTML, like Gecko) Chrome/131.0.0.0 Safari/537.36" version="25.0.3">
  <diagram name="Trang-1" id="JkPbLh7bJ8x2BNphUBJ9">
    <mxGraphModel dx="1837" dy="983" grid="1" gridSize="10" guides="1" tooltips="1" connect="1" arrows="1" fold="1" page="1" pageScale="1" pageWidth="827" pageHeight="1169" math="0" shadow="0">
      <root>
        <mxCell id="0" />
        <mxCell id="1" parent="0" />
        <mxCell id="8VP7obPquyjOTvrlZIjT-1" style="edgeStyle=orthogonalEdgeStyle;rounded=0;orthogonalLoop=1;jettySize=auto;html=1;entryX=0;entryY=0.5;entryDx=0;entryDy=0;" edge="1" parent="1" source="8VP7obPquyjOTvrlZIjT-2" target="8VP7obPquyjOTvrlZIjT-3">
          <mxGeometry relative="1" as="geometry" />
        </mxCell>
        <mxCell id="8VP7obPquyjOTvrlZIjT-2" value="Nhân viên&amp;nbsp;&lt;div&gt;kho hàng&lt;/div&gt;" style="shape=umlActor;verticalLabelPosition=bottom;verticalAlign=top;html=1;outlineConnect=0;" vertex="1" parent="1">
          <mxGeometry x="90" y="170" width="30" height="60" as="geometry" />
        </mxCell>
        <mxCell id="8VP7obPquyjOTvrlZIjT-3" value="Quản lí đơn hàng" style="ellipse;whiteSpace=wrap;html=1;" vertex="1" parent="1">
          <mxGeometry x="240" y="160" width="120" height="80" as="geometry" />
        </mxCell>
        <mxCell id="8VP7obPquyjOTvrlZIjT-4" value="Xác nhận đơn hàng" style="ellipse;whiteSpace=wrap;html=1;" vertex="1" parent="1">
          <mxGeometry x="240" width="120" height="80" as="geometry" />
        </mxCell>
        <mxCell id="8VP7obPquyjOTvrlZIjT-5" value="Xem thông tin&amp;nbsp;&lt;div&gt;đơn hàng&lt;/div&gt;" style="ellipse;whiteSpace=wrap;html=1;" vertex="1" parent="1">
          <mxGeometry x="440" y="160" width="120" height="80" as="geometry" />
        </mxCell>
        <mxCell id="8VP7obPquyjOTvrlZIjT-7" value="Xác nhận đơn hàng&amp;nbsp;&lt;div&gt;bị hủy&lt;/div&gt;" style="ellipse;whiteSpace=wrap;html=1;" vertex="1" parent="1">
          <mxGeometry x="240" y="320" width="120" height="80" as="geometry" />
        </mxCell>
        <mxCell id="8VP7obPquyjOTvrlZIjT-8" value="&amp;lt;&amp;lt;extend&amp;gt;&amp;gt;" style="html=1;verticalAlign=bottom;labelBackgroundColor=none;endArrow=open;endFill=0;dashed=1;rounded=0;exitX=0;exitY=0.5;exitDx=0;exitDy=0;entryX=1;entryY=0.5;entryDx=0;entryDy=0;" edge="1" parent="1" source="8VP7obPquyjOTvrlZIjT-5" target="8VP7obPquyjOTvrlZIjT-3">
          <mxGeometry width="160" relative="1" as="geometry">
            <mxPoint x="388" y="78" as="sourcePoint" />
            <mxPoint x="330" y="170" as="targetPoint" />
          </mxGeometry>
        </mxCell>
        <mxCell id="8VP7obPquyjOTvrlZIjT-10" value="&amp;lt;&amp;lt;extend&amp;gt;&amp;gt;" style="html=1;verticalAlign=bottom;labelBackgroundColor=none;endArrow=open;endFill=0;dashed=1;rounded=0;entryX=0.5;entryY=1;entryDx=0;entryDy=0;exitX=0.5;exitY=0;exitDx=0;exitDy=0;" edge="1" parent="1" source="8VP7obPquyjOTvrlZIjT-7" target="8VP7obPquyjOTvrlZIjT-3">
          <mxGeometry width="160" relative="1" as="geometry">
            <mxPoint x="388" y="78" as="sourcePoint" />
            <mxPoint x="310" y="170" as="targetPoint" />
          </mxGeometry>
        </mxCell>
        <mxCell id="8VP7obPquyjOTvrlZIjT-11" value="&amp;lt;&amp;lt;include&amp;gt;&amp;gt;" style="html=1;verticalAlign=bottom;labelBackgroundColor=none;endArrow=open;endFill=0;dashed=1;rounded=0;exitX=0.5;exitY=0;exitDx=0;exitDy=0;entryX=0.5;entryY=1;entryDx=0;entryDy=0;" edge="1" parent="1" source="8VP7obPquyjOTvrlZIjT-3" target="8VP7obPquyjOTvrlZIjT-4">
          <mxGeometry width="160" relative="1" as="geometry">
            <mxPoint x="-290" y="170" as="sourcePoint" />
            <mxPoint x="-290" y="90" as="targetPoint" />
          </mxGeometry>
        </mxCell>
        <mxCell id="8VP7obPquyjOTvrlZIjT-12" style="edgeStyle=orthogonalEdgeStyle;rounded=0;orthogonalLoop=1;jettySize=auto;html=1;entryX=0;entryY=0.5;entryDx=0;entryDy=0;" edge="1" parent="1" source="8VP7obPquyjOTvrlZIjT-13" target="8VP7obPquyjOTvrlZIjT-14">
          <mxGeometry relative="1" as="geometry" />
        </mxCell>
        <mxCell id="8VP7obPquyjOTvrlZIjT-13" value="Nhân viên&amp;nbsp;&lt;div&gt;kho hàng&lt;/div&gt;" style="shape=umlActor;verticalLabelPosition=bottom;verticalAlign=top;html=1;outlineConnect=0;" vertex="1" parent="1">
          <mxGeometry x="90" y="770" width="30" height="60" as="geometry" />
        </mxCell>
        <mxCell id="8VP7obPquyjOTvrlZIjT-14" value="Quản lí kho hàng" style="ellipse;whiteSpace=wrap;html=1;" vertex="1" parent="1">
          <mxGeometry x="240" y="760" width="120" height="80" as="geometry" />
        </mxCell>
        <mxCell id="8VP7obPquyjOTvrlZIjT-16" value="Quản lí hàng hóa" style="ellipse;whiteSpace=wrap;html=1;" vertex="1" parent="1">
          <mxGeometry x="440" y="560" width="120" height="80" as="geometry" />
        </mxCell>
        <mxCell id="8VP7obPquyjOTvrlZIjT-17" value="Quản lí sản phẩm" style="ellipse;whiteSpace=wrap;html=1;" vertex="1" parent="1">
          <mxGeometry x="440" y="960" width="120" height="80" as="geometry" />
        </mxCell>
        <mxCell id="8VP7obPquyjOTvrlZIjT-19" value="&amp;lt;&amp;lt;extend&amp;gt;&amp;gt;" style="html=1;verticalAlign=bottom;labelBackgroundColor=none;endArrow=open;endFill=0;dashed=1;rounded=0;exitX=0;exitY=0.5;exitDx=0;exitDy=0;entryX=1;entryY=0;entryDx=0;entryDy=0;" edge="1" parent="1" source="8VP7obPquyjOTvrlZIjT-16" target="8VP7obPquyjOTvrlZIjT-14">
          <mxGeometry width="160" relative="1" as="geometry">
            <mxPoint x="388" y="678" as="sourcePoint" />
            <mxPoint x="330" y="770" as="targetPoint" />
          </mxGeometry>
        </mxCell>
        <mxCell id="8VP7obPquyjOTvrlZIjT-20" value="&amp;lt;&amp;lt;extend&amp;gt;&amp;gt;" style="html=1;verticalAlign=bottom;labelBackgroundColor=none;endArrow=open;endFill=0;dashed=1;rounded=0;entryX=1;entryY=1;entryDx=0;entryDy=0;exitX=0;exitY=0.5;exitDx=0;exitDy=0;" edge="1" parent="1" source="8VP7obPquyjOTvrlZIjT-17" target="8VP7obPquyjOTvrlZIjT-14">
          <mxGeometry width="160" relative="1" as="geometry">
            <mxPoint x="450" y="760" as="sourcePoint" />
            <mxPoint x="352" y="782" as="targetPoint" />
          </mxGeometry>
        </mxCell>
        <mxCell id="8VP7obPquyjOTvrlZIjT-24" value="Nhập kho" style="ellipse;whiteSpace=wrap;html=1;" vertex="1" parent="1">
          <mxGeometry x="640" y="410" width="120" height="80" as="geometry" />
        </mxCell>
        <mxCell id="8VP7obPquyjOTvrlZIjT-25" value="Xuất kho&amp;nbsp;" style="ellipse;whiteSpace=wrap;html=1;" vertex="1" parent="1">
          <mxGeometry x="640" y="510" width="120" height="80" as="geometry" />
        </mxCell>
        <mxCell id="8VP7obPquyjOTvrlZIjT-26" value="Kiểm kê&amp;nbsp;" style="ellipse;whiteSpace=wrap;html=1;" vertex="1" parent="1">
          <mxGeometry x="640" y="610" width="120" height="80" as="geometry" />
        </mxCell>
        <mxCell id="8VP7obPquyjOTvrlZIjT-27" value="Xem lịch sử&amp;nbsp;&lt;div&gt;kho hàng&lt;/div&gt;" style="ellipse;whiteSpace=wrap;html=1;" vertex="1" parent="1">
          <mxGeometry x="640" y="710" width="120" height="80" as="geometry" />
        </mxCell>
        <mxCell id="8VP7obPquyjOTvrlZIjT-28" value="&amp;lt;&amp;lt;extend&amp;gt;&amp;gt;" style="html=1;verticalAlign=bottom;labelBackgroundColor=none;endArrow=open;endFill=0;dashed=1;rounded=0;exitX=0;exitY=0.5;exitDx=0;exitDy=0;entryX=0.5;entryY=0;entryDx=0;entryDy=0;" edge="1" parent="1" source="8VP7obPquyjOTvrlZIjT-24" target="8VP7obPquyjOTvrlZIjT-16">
          <mxGeometry width="160" relative="1" as="geometry">
            <mxPoint x="450" y="610" as="sourcePoint" />
            <mxPoint x="352" y="782" as="targetPoint" />
          </mxGeometry>
        </mxCell>
        <mxCell id="8VP7obPquyjOTvrlZIjT-29" value="&amp;lt;&amp;lt;extend&amp;gt;&amp;gt;" style="html=1;verticalAlign=bottom;labelBackgroundColor=none;endArrow=open;endFill=0;dashed=1;rounded=0;exitX=0;exitY=0.5;exitDx=0;exitDy=0;entryX=1;entryY=0;entryDx=0;entryDy=0;" edge="1" parent="1" source="8VP7obPquyjOTvrlZIjT-25" target="8VP7obPquyjOTvrlZIjT-16">
          <mxGeometry width="160" relative="1" as="geometry">
            <mxPoint x="650" y="460" as="sourcePoint" />
            <mxPoint x="510" y="570" as="targetPoint" />
          </mxGeometry>
        </mxCell>
        <mxCell id="8VP7obPquyjOTvrlZIjT-30" value="&amp;lt;&amp;lt;extend&amp;gt;&amp;gt;" style="html=1;verticalAlign=bottom;labelBackgroundColor=none;endArrow=open;endFill=0;dashed=1;rounded=0;exitX=0;exitY=0.5;exitDx=0;exitDy=0;entryX=1;entryY=1;entryDx=0;entryDy=0;" edge="1" parent="1" source="8VP7obPquyjOTvrlZIjT-26" target="8VP7obPquyjOTvrlZIjT-16">
          <mxGeometry width="160" relative="1" as="geometry">
            <mxPoint x="650" y="560" as="sourcePoint" />
            <mxPoint x="552" y="582" as="targetPoint" />
          </mxGeometry>
        </mxCell>
        <mxCell id="8VP7obPquyjOTvrlZIjT-31" value="&amp;lt;&amp;lt;extend&amp;gt;&amp;gt;" style="html=1;verticalAlign=bottom;labelBackgroundColor=none;endArrow=open;endFill=0;dashed=1;rounded=0;exitX=0;exitY=0.5;exitDx=0;exitDy=0;entryX=0.5;entryY=1;entryDx=0;entryDy=0;" edge="1" parent="1" source="8VP7obPquyjOTvrlZIjT-27" target="8VP7obPquyjOTvrlZIjT-16">
          <mxGeometry width="160" relative="1" as="geometry">
            <mxPoint x="650" y="660" as="sourcePoint" />
            <mxPoint x="552" y="638" as="targetPoint" />
          </mxGeometry>
        </mxCell>
        <mxCell id="8VP7obPquyjOTvrlZIjT-32" value="Thêm sản phẩm" style="ellipse;whiteSpace=wrap;html=1;" vertex="1" parent="1">
          <mxGeometry x="640" y="810" width="120" height="80" as="geometry" />
        </mxCell>
        <mxCell id="8VP7obPquyjOTvrlZIjT-33" value="Xem thông tin&amp;nbsp;&lt;div&gt;sản phẩm&lt;/div&gt;" style="ellipse;whiteSpace=wrap;html=1;" vertex="1" parent="1">
          <mxGeometry x="640" y="910" width="120" height="80" as="geometry" />
        </mxCell>
        <mxCell id="8VP7obPquyjOTvrlZIjT-34" value="Cập nhật thông tin sản phẩm" style="ellipse;whiteSpace=wrap;html=1;" vertex="1" parent="1">
          <mxGeometry x="640" y="1010" width="120" height="80" as="geometry" />
        </mxCell>
        <mxCell id="8VP7obPquyjOTvrlZIjT-35" value="Xóa sản phẩm" style="ellipse;whiteSpace=wrap;html=1;" vertex="1" parent="1">
          <mxGeometry x="640" y="1110" width="120" height="80" as="geometry" />
        </mxCell>
        <mxCell id="8VP7obPquyjOTvrlZIjT-37" value="&amp;lt;&amp;lt;extend&amp;gt;&amp;gt;" style="html=1;verticalAlign=bottom;labelBackgroundColor=none;endArrow=open;endFill=0;dashed=1;rounded=0;exitX=0;exitY=0.5;exitDx=0;exitDy=0;entryX=0.5;entryY=0;entryDx=0;entryDy=0;" edge="1" parent="1" source="8VP7obPquyjOTvrlZIjT-32" target="8VP7obPquyjOTvrlZIjT-17">
          <mxGeometry width="160" relative="1" as="geometry">
            <mxPoint x="650" y="760" as="sourcePoint" />
            <mxPoint x="510" y="650" as="targetPoint" />
          </mxGeometry>
        </mxCell>
        <mxCell id="8VP7obPquyjOTvrlZIjT-38" value="&amp;lt;&amp;lt;extend&amp;gt;&amp;gt;" style="html=1;verticalAlign=bottom;labelBackgroundColor=none;endArrow=open;endFill=0;dashed=1;rounded=0;exitX=0;exitY=0.5;exitDx=0;exitDy=0;entryX=1;entryY=0;entryDx=0;entryDy=0;" edge="1" parent="1" source="8VP7obPquyjOTvrlZIjT-33" target="8VP7obPquyjOTvrlZIjT-17">
          <mxGeometry width="160" relative="1" as="geometry">
            <mxPoint x="650" y="860" as="sourcePoint" />
            <mxPoint x="510" y="970" as="targetPoint" />
          </mxGeometry>
        </mxCell>
        <mxCell id="8VP7obPquyjOTvrlZIjT-39" value="&amp;lt;&amp;lt;extend&amp;gt;&amp;gt;" style="html=1;verticalAlign=bottom;labelBackgroundColor=none;endArrow=open;endFill=0;dashed=1;rounded=0;exitX=0;exitY=0.5;exitDx=0;exitDy=0;entryX=1;entryY=1;entryDx=0;entryDy=0;" edge="1" parent="1" source="8VP7obPquyjOTvrlZIjT-34" target="8VP7obPquyjOTvrlZIjT-17">
          <mxGeometry width="160" relative="1" as="geometry">
            <mxPoint x="650" y="960" as="sourcePoint" />
            <mxPoint x="552" y="982" as="targetPoint" />
          </mxGeometry>
        </mxCell>
        <mxCell id="8VP7obPquyjOTvrlZIjT-40" value="&amp;lt;&amp;lt;extend&amp;gt;&amp;gt;" style="html=1;verticalAlign=bottom;labelBackgroundColor=none;endArrow=open;endFill=0;dashed=1;rounded=0;entryX=0.5;entryY=1;entryDx=0;entryDy=0;exitX=0;exitY=0.5;exitDx=0;exitDy=0;" edge="1" parent="1" source="8VP7obPquyjOTvrlZIjT-35" target="8VP7obPquyjOTvrlZIjT-17">
          <mxGeometry width="160" relative="1" as="geometry">
            <mxPoint x="630" y="1150" as="sourcePoint" />
            <mxPoint x="552" y="1038" as="targetPoint" />
          </mxGeometry>
        </mxCell>
      </root>
    </mxGraphModel>
  </diagram>
</mxfile>
